<svg xmlns="http://www.w3.org/2000/svg" xmlns:xlink="http://www.w3.org/1999/xlink" viewBox="0 0 441.57 297.28"><defs><style>.cls-1,.cls-10{fill:none;}.cls-2{isolation:isolate;}.cls-3{fill:#23358e;}.cls-4{clip-path:url(#clip-path);}.cls-5{fill:#1d3069;}.cls-6{fill:#4262d8;}.cls-7{fill:#5e83ef;}.cls-8{fill:#f1cc45;}.cls-9{fill:#e8a336;}.cls-10{stroke:#4265bc;stroke-miterlimit:10;stroke-width:1.5px;}.cls-11{opacity:0.3;mix-blend-mode:multiply;}.cls-12{fill:#a2f4ff;}.cls-13{clip-path:url(#clip-path-2);}.cls-14{fill:#72bbda;}.cls-15{clip-path:url(#clip-path-3);}.cls-16{fill:#ca9b2c;}.cls-17{fill:#f5de94;}.cls-18{fill:#5886fa;}</style><clipPath id="clip-path" transform="translate(15.68)"><path class="cls-1" d="M323.24,233.8c19.66-29.42,40.77-19.7,64.84-38.9,18.79-14.66,28.15-54.51,19.27-83.82C385.48,39,332.54,62.74,309.66,36.59c-54.49-62.24-132.23-32-157.9-4.65C133,52,121.17,49.78,99.48,48.14,32.92,43.09.23,100.58,0,151.26c-.11,25,1.55,95.42,68.74,106.65,43.35,7.24,59.11-9.78,105.89,17.45C207.68,294.6,280.8,297.29,323.24,233.8Z"/></clipPath><clipPath id="clip-path-2" transform="translate(15.68)"><rect class="cls-1" x="91.16" y="106.18" width="210.2" height="48.9"/></clipPath><clipPath id="clip-path-3" transform="translate(15.68)"><rect class="cls-1" x="105.28" y="173" width="181.97" height="22.9"/></clipPath></defs><g class="cls-2"><g id="Layer_2" data-name="Layer 2"><g id="OBJECTS"><path class="cls-3" d="M323.24,233.8c19.66-29.42,40.77-19.7,64.84-38.9,18.79-14.66,28.15-54.51,19.27-83.82C385.48,39,332.54,62.74,309.66,36.59c-54.49-62.24-132.23-32-157.9-4.65C133,52,121.17,49.78,99.48,48.14,32.92,43.09.23,100.58,0,151.26c-.11,25,1.55,95.42,68.74,106.65,43.35,7.24,59.11-9.78,105.89,17.45C207.68,294.6,280.8,297.29,323.24,233.8Z" transform="translate(15.68)"/><g class="cls-4"><rect class="cls-5" y="186.94" width="441.57" height="110.34"/></g><path class="cls-3" d="M373.24,212c-8.1-1.72-18.88,6.07-21.37,14.07s11,13.19,20,8.13C381.18,229,381.27,213.72,373.24,212Z" transform="translate(15.68)"/><rect class="cls-6" x="132.88" y="100.94" width="28.85" height="5.24"/><rect class="cls-7" x="140.29" y="98.61" width="14.04" height="2.33"/><rect class="cls-6" x="144.52" y="88.56" width="5.57" height="10.05"/><path class="cls-6" d="M142.52,84a10.9,10.9,0,1,1-10.89-10.9A10.9,10.9,0,0,1,142.52,84Z" transform="translate(15.68)"/><path class="cls-8" d="M139.22,84a7.6,7.6,0,1,1-7.59-7.59A7.59,7.59,0,0,1,139.22,84Z" transform="translate(15.68)"/><path class="cls-9" d="M137.62,84a6,6,0,1,1-6-6A6,6,0,0,1,137.62,84Z" transform="translate(15.68)"/><rect class="cls-6" x="228.24" y="100.94" width="28.85" height="5.24"/><rect class="cls-7" x="235.64" y="98.61" width="14.04" height="2.33"/><rect class="cls-6" x="239.88" y="88.56" width="5.57" height="10.05"/><path class="cls-6" d="M237.88,84A10.9,10.9,0,1,1,227,73.07,10.9,10.9,0,0,1,237.88,84Z" transform="translate(15.68)"/><path class="cls-8" d="M234.57,84A7.59,7.59,0,1,1,227,76.38,7.59,7.59,0,0,1,234.57,84Z" transform="translate(15.68)"/><path class="cls-9" d="M233,84a6,6,0,1,1-6-6A6,6,0,0,1,233,84Z" transform="translate(15.68)"/><line class="cls-10" x1="266.16" y1="41.79" x2="225.46" y2="41.79"/><line class="cls-10" x1="275.24" y1="55.23" x2="233.4" y2="55.23"/><line class="cls-10" x1="274.23" y1="28.35" x2="246.67" y2="28.35"/><line class="cls-10" x1="246.67" y1="41.79" x2="246.67" y2="55.23"/><line class="cls-10" x1="258.1" y1="28.35" x2="258.1" y2="41.79"/><line class="cls-10" x1="86.93" y1="124.8" x2="56.35" y2="124.8"/><line class="cls-10" x1="91.97" y1="111.36" x2="64.41" y2="111.36"/><line class="cls-10" x1="75.84" y1="111.36" x2="75.84" y2="124.8"/><line class="cls-10" x1="407.96" y1="132.97" x2="363.6" y2="132.97"/><line class="cls-10" x1="399.22" y1="119.52" x2="371.67" y2="119.52"/><line class="cls-10" x1="383.1" y1="119.52" x2="383.1" y2="132.97"/><line class="cls-10" x1="399.22" y1="132.97" x2="399.22" y2="146.4"/><path class="cls-11" d="M301.36,222.49c0,6.2-47.06,11.24-105.1,11.24s-105.1-5-105.1-11.24,47.06-11.24,105.1-11.24S301.36,216.28,301.36,222.49Z" transform="translate(15.68)"/><path class="cls-11" d="M86.39,222.62c0,1.95-18.85,3.53-42.1,3.53S2.2,224.57,2.2,222.62s18.84-3.53,42.09-3.53S86.39,220.67,86.39,222.62Z" transform="translate(15.68)"/><path class="cls-11" d="M370.48,222.49c0,1.95-14.73,3.53-32.9,3.53s-32.9-1.58-32.9-3.53,14.73-3.53,32.9-3.53S370.48,220.54,370.48,222.49Z" transform="translate(15.68)"/><rect class="cls-12" x="106.84" y="106.18" width="210.2" height="48.9"/><rect class="cls-6" x="120.96" y="155.07" width="19.15" height="67.54"/><rect class="cls-6" x="283.77" y="155.07" width="19.16" height="67.54"/><g class="cls-13"><rect class="cls-14" x="11.27" y="123.58" width="127.47" height="16.71" transform="translate(-55.65 91.69) rotate(-45)"/><rect class="cls-14" x="59.01" y="123.58" width="127.47" height="16.71" transform="translate(-41.66 125.45) rotate(-45)"/><rect class="cls-14" x="106.76" y="123.58" width="127.47" height="16.71" transform="translate(-27.67 159.22) rotate(-45)"/><rect class="cls-14" x="154.5" y="123.58" width="127.47" height="16.71" transform="translate(-13.69 192.97) rotate(-45)"/><rect class="cls-14" x="202.25" y="123.58" width="127.47" height="16.71" transform="translate(0.3 226.74) rotate(-45)"/><rect class="cls-14" x="249.99" y="123.58" width="127.47" height="16.71" transform="translate(14.28 260.5) rotate(-45)"/></g><rect class="cls-12" x="120.96" y="173" width="181.97" height="22.9"/><g class="cls-15"><rect class="cls-14" x="11.27" y="156.61" width="127.47" height="16.71" transform="translate(-79 101.36) rotate(-45)"/><rect class="cls-14" x="59.01" y="156.61" width="127.47" height="16.71" transform="translate(-65.02 135.12) rotate(-45)"/><rect class="cls-14" x="106.76" y="156.61" width="127.47" height="16.71" transform="translate(-51.03 168.89) rotate(-45)"/><rect class="cls-14" x="154.5" y="156.61" width="127.47" height="16.71" transform="translate(-37.05 202.63) rotate(-45)"/><rect class="cls-14" x="202.25" y="156.61" width="127.47" height="16.71" transform="translate(-23.06 236.4) rotate(-45)"/><rect class="cls-14" x="249.99" y="156.61" width="127.47" height="16.71" transform="translate(-9.08 270.16) rotate(-45)"/></g><polygon class="cls-11" points="317.04 128.58 317.04 117.42 295.86 106.18 274.84 106.18 317.04 128.58"/><path class="cls-16" d="M274.82,95.44l-7.57,3c8.08-15.21,25.38-16.93,35.83-11.38a29.86,29.86,0,0,1,14.4,17l-6.62,2.21a23,23,0,0,0-36-10.85Z" transform="translate(15.68)"/><path class="cls-8" d="M312.44,126a26.52,26.52,0,0,0-46.84-24.87Z" transform="translate(15.68)"/><polygon class="cls-16" points="330.79 133.09 278.93 105.57 281.25 101.2 335.21 129.85 330.79 133.09"/><path class="cls-17" d="M267.25,98.46a27.86,27.86,0,0,0-1.65,2.68L312.44,126a25.24,25.24,0,0,0,1.29-2.87Z" transform="translate(15.68)"/><rect class="cls-16" x="288.19" y="109.05" width="4.24" height="4.18" transform="translate(71.61 315.34) rotate(-62.01)"/><rect class="cls-6" x="66.75" y="161.48" width="5.2" height="62.4" transform="translate(-52.8 41.23) rotate(-22.51)"/><polygon class="cls-18" points="42.45 197.79 16.39 219.02 17.88 222.62 51.31 219.19 91.5 215.08 82.63 193.68 73.76 172.28 42.45 197.79"/><rect class="cls-6" x="322.06" y="217.3" width="62.41" height="5.2"/><polygon class="cls-18" points="364.85 178.6 355.21 146.41 351.31 146.41 341.68 178.6 330.1 217.3 353.26 217.3 376.43 217.3 364.85 178.6"/><path class="cls-3" d="M107.15,40c13.06,5.63,26.66.73,30.94-9.35S135,13.09,123.48,14.5C110.42,16.1,93.61,34.16,107.15,40Z" transform="translate(15.68)"/><path class="cls-3" d="M318.23,24.88c-3.1,5,10,17.27,17.14,11.08C343.62,28.83,325.57,13.06,318.23,24.88Z" transform="translate(15.68)"/><path class="cls-3" d="M148.41,271.87c-2.45-4-10-5.59-14.48-3.63s-1.33,9.51,4.38,11.35C144.25,281.5,150.84,275.85,148.41,271.87Z" transform="translate(15.68)"/></g></g></g></svg>